<svg width="1060" height="1100" viewBox="0 0 1060 1100" fill="none" xmlns="http://www.w3.org/2000/svg">
<path d="M626.299 130.374C597.77 161.569 600.955 210.929 634.288 236.893C756.632 332.047 785.399 470.856 759.247 590.975C730.67 722.127 612.415 822.607 477.042 819.564C392.262 817.71 282.28 753.845 217.423 691.836C199.925 675.097 180.62 666.585 161.553 667.251C144.387 667.821 127.935 675.953 113.861 690.599L105.064 700.205L19 796.025C-9.38687 830.406 -5.91577 868.021 29.0805 904.684C76.8675 954.948 212.954 1074.21 444.281 1096.9C716.025 1123.57 970.461 978.677 1043.21 649.228C1096.47 408.038 1020.63 173.838 824.199 16.2934C793.958 -8.00638 750.07 -4.8203 723.87 23.8068L626.347 130.421L626.299 130.374Z" fill="#0047BB"/>
</svg>
